<svg xmlns="http://www.w3.org/2000/svg" xmlns:xlink="http://www.w3.org/1999/xlink" viewBox="0 0 121 32"><path d="M 36.114 9.873 L 39.052 9.873 L 39.052 21.765 L 36.114 21.765 Z M 40.218 17.275 C 40.218 14.333 42.02 12.578 44.802 12.578 C 47.583 12.578 49.386 14.333 49.386 17.275 C 49.386 20.216 47.623 21.98 44.802 21.98 C 41.981 21.98 40.218 20.265 40.218 17.275 Z M 46.437 17.275 C 46.437 15.657 45.801 14.706 44.802 14.706 C 43.803 14.706 43.176 15.686 43.176 17.275 C 43.176 18.863 43.793 19.824 44.802 19.824 C 45.811 19.824 46.437 18.922 46.437 17.284 Z M 50.493 22.343 L 53.313 22.343 C 53.589 22.956 54.235 23.315 54.9 23.225 C 56.017 23.225 56.605 22.618 56.605 21.735 L 56.605 20.088 L 56.546 20.088 C 56.067 21.121 55.008 21.758 53.872 21.696 C 51.727 21.696 50.306 20.059 50.306 17.245 C 50.306 14.431 51.658 12.657 53.911 12.657 C 55.084 12.611 56.161 13.299 56.614 14.382 L 56.614 12.745 L 59.553 12.745 L 59.553 21.667 C 59.553 23.814 57.662 25.147 54.871 25.147 C 52.275 25.147 50.659 23.98 50.493 22.353 Z M 56.614 17.265 C 56.614 15.833 55.958 14.931 54.92 14.931 C 53.882 14.931 53.245 15.824 53.245 17.265 C 53.245 18.706 53.872 19.52 54.92 19.52 C 55.968 19.52 56.614 18.725 56.614 17.275 Z M 60.66 17.265 C 60.66 14.324 62.462 12.569 65.244 12.569 C 68.025 12.569 69.837 14.324 69.837 17.265 C 69.837 20.206 68.074 21.971 65.244 21.971 C 62.413 21.971 60.66 20.265 60.66 17.275 Z M 66.879 17.265 C 66.879 15.647 66.243 14.696 65.244 14.696 C 64.245 14.696 63.667 15.686 63.667 17.284 C 63.667 18.882 64.284 19.833 65.283 19.833 C 66.282 19.833 66.879 18.922 66.879 17.284 Z M 70.954 10.608 C 70.938 10.001 71.29 9.444 71.845 9.198 C 72.4 8.951 73.048 9.065 73.487 9.484 C 73.926 9.904 74.069 10.547 73.849 11.113 C 73.628 11.679 73.089 12.057 72.482 12.069 C 72.084 12.096 71.693 11.956 71.403 11.682 C 71.113 11.409 70.95 11.026 70.954 10.627 Z M 70.954 12.765 L 73.893 12.765 L 73.893 21.765 L 70.954 21.765 Z M 84.559 17.265 C 84.559 20.206 83.256 21.882 81.023 21.882 C 79.85 21.958 78.755 21.292 78.281 20.216 L 78.222 20.216 L 78.222 24.647 L 75.283 24.647 L 75.283 12.745 L 78.222 12.745 L 78.222 14.353 L 78.281 14.353 C 78.733 13.259 79.822 12.565 81.004 12.618 C 83.256 12.657 84.598 14.343 84.598 17.284 Z M 81.621 17.265 C 81.621 15.833 80.964 14.922 79.936 14.922 C 78.907 14.922 78.251 15.843 78.241 17.265 C 78.232 18.686 78.907 19.598 79.936 19.598 C 80.964 19.598 81.621 18.706 81.621 17.284 Z M 89.603 12.559 C 92.042 12.559 93.521 13.716 93.59 15.569 L 90.916 15.569 C 90.916 14.931 90.387 14.529 89.574 14.529 C 88.761 14.529 88.399 14.843 88.399 15.304 C 88.399 15.765 88.722 15.912 89.378 16.049 L 91.259 16.431 C 93.051 16.814 93.815 17.539 93.815 18.902 C 93.815 20.765 92.121 21.961 89.623 21.961 C 87.125 21.961 85.49 20.765 85.362 18.931 L 88.193 18.931 C 88.281 19.598 88.81 19.99 89.672 19.99 C 90.534 19.99 90.926 19.706 90.926 19.235 C 90.926 18.765 90.652 18.667 89.946 18.52 L 88.252 18.157 C 86.499 17.794 85.578 16.863 85.578 15.49 C 85.597 13.725 87.174 12.578 89.603 12.578 Z M 103.62 21.745 L 100.789 21.745 L 100.789 20.069 L 100.73 20.069 C 100.41 21.228 99.325 22.008 98.125 21.941 C 97.222 21.993 96.341 21.65 95.709 21.001 C 95.078 20.352 94.759 19.461 94.834 18.559 L 94.834 12.745 L 97.772 12.745 L 97.772 17.882 C 97.772 18.951 98.321 19.52 99.232 19.52 C 99.664 19.52 100.076 19.334 100.361 19.01 C 100.645 18.684 100.776 18.252 100.721 17.824 L 100.721 12.745 L 103.659 12.745 Z M 105.04 12.745 L 107.881 12.745 L 107.881 14.48 L 107.939 14.48 C 108.26 13.338 109.311 12.556 110.496 12.578 C 111.712 12.481 112.799 13.334 112.994 14.539 L 113.052 14.539 C 113.417 13.33 114.554 12.523 115.815 12.578 C 117.05 12.536 118.172 13.296 118.591 14.461 C 118.727 14.837 118.782 15.238 118.753 15.637 L 118.753 21.765 L 115.815 21.765 L 115.815 16.422 C 115.815 15.441 115.374 14.99 114.551 14.99 C 114.18 14.987 113.825 15.145 113.579 15.423 C 113.333 15.701 113.22 16.073 113.268 16.441 L 113.268 21.765 L 110.476 21.765 L 110.476 16.382 C 110.476 15.48 110.036 14.99 109.232 14.99 C 108.857 14.99 108.499 15.15 108.25 15.432 C 108.001 15.713 107.884 16.088 107.93 16.461 L 107.93 21.765 L 104.991 21.765 Z M 27.896 10.412 C 27.397 9.271 26.738 8.208 25.937 7.255 C 22.706 3.296 17.49 1.547 12.529 2.76 C 7.568 3.973 3.744 7.931 2.7 12.935 C 1.656 17.939 3.578 23.098 7.64 26.196 C 8.595 26.939 9.65 27.543 10.774 27.99 C 12.35 28.637 14.037 28.97 15.74 28.971 C 23.06 28.954 28.987 23.013 28.993 15.686 C 28.995 13.871 28.622 12.075 27.896 10.412 Z M 15.731 5.088 C 17.261 5.088 18.771 5.423 20.158 6.069 C 19.82 6.215 19.464 6.317 19.1 6.373 C 16.639 6.729 14.706 8.664 14.349 11.127 C 14.193 12.514 13.084 13.599 11.695 13.725 C 9.234 14.082 7.301 16.017 6.945 18.48 C 6.886 19.12 6.613 19.721 6.171 20.186 C 4.619 16.905 4.855 13.057 6.797 9.99 C 8.738 6.923 12.113 5.066 15.74 5.069 Z M 7.63 22.549 C 7.748 22.441 7.865 22.343 7.983 22.225 C 8.854 21.38 9.414 20.264 9.57 19.059 C 9.633 18.382 9.935 17.749 10.422 17.275 C 10.89 16.786 11.521 16.487 12.195 16.431 C 14.656 16.075 16.589 14.14 16.945 11.676 C 16.988 10.968 17.291 10.301 17.797 9.804 C 18.277 9.325 18.914 9.036 19.59 8.99 C 20.691 8.839 21.717 8.349 22.528 7.588 C 23.452 8.355 24.234 9.277 24.84 10.314 C 24.803 10.364 24.76 10.41 24.712 10.451 C 24.245 10.943 23.615 11.25 22.94 11.314 C 20.475 11.664 18.539 13.602 18.189 16.069 C 18.047 17.46 16.945 18.559 15.554 18.696 C 13.086 19.05 11.143 20.983 10.774 23.451 C 10.722 23.93 10.557 24.39 10.294 24.794 C 9.289 24.197 8.389 23.438 7.63 22.549 Z M 15.731 26.333 C 14.737 26.334 13.748 26.196 12.792 25.922 C 13.119 25.312 13.331 24.647 13.419 23.961 C 13.56 22.573 14.657 21.475 16.044 21.333 C 18.509 20.981 20.447 19.045 20.804 16.578 C 20.946 15.19 22.042 14.093 23.429 13.951 C 24.332 13.833 25.193 13.497 25.937 12.971 C 26.774 16.145 26.094 19.529 24.097 22.134 C 22.101 24.739 19.011 26.272 15.731 26.284 Z" fill="hsl(0, 0%, 100%)"></path></svg>